<?xml version="1.0" standalone="no"?>
<!DOCTYPE svg PUBLIC "-//W3C//DTD SVG 20010904//EN"
 "http://www.w3.org/TR/2001/REC-SVG-20010904/DTD/svg10.dtd">
<svg version="1.0" xmlns="http://www.w3.org/2000/svg"
 width="300.000000pt" height="450.000000pt" viewBox="0 0 300.000000 450.000000"
 preserveAspectRatio="xMidYMid meet">
<metadata>
Created by potrace 1.10, written by Peter Selinger 2001-2011
</metadata>
<g transform="translate(0.000000,450.000000) scale(0.050000,-0.050000)"
fill="#000000" stroke="none">
<path d="M1903 7263 c-77 -77 -83 -405 -13 -723 l33 -150 -122 -286 c-66 -158
-121 -292 -121 -298 0 -6 83 74 185 177 304 310 475 370 765 267 179 -63 207
-62 411 10 389 137 652 31 1119 -454 214 -221 275 -267 450 -337 62 -25 -97
-43 -218 -25 -155 23 -285 99 -520 304 -385 335 -627 406 -912 266 -140 -68
-188 -68 -343 6 -246 116 -385 77 -680 -194 -193 -176 -356 -294 -458 -330
-77 -26 -75 -38 30 -185 129 -181 379 -407 568 -513 l164 -93 -122 -113 c-214
-198 -327 -230 -510 -144 -165 76 -249 162 -249 253 0 100 -33 169 -93 197
-169 77 -297 -100 -180 -246 114 -143 -42 -447 -246 -482 l-81 -14 4 -127 c3
-117 -3 -137 -69 -234 -141 -205 -147 -337 -21 -477 88 -97 106 -98 108 -3 4
199 94 315 212 274 73 -26 101 -112 86 -268 -13 -138 -4 -144 102 -72 172 116
183 415 21 559 -33 29 -43 61 -43 138 l0 100 80 -91 c99 -113 244 -207 412
-268 178 -64 170 -68 257 124 101 226 106 206 21 -103 -198 -720 -216 -1141
-63 -1446 l49 -98 -63 -12 c-250 -48 -474 -283 -369 -388 30 -30 1019 -34
1075 -5 19 11 56 74 81 140 86 231 227 294 514 231 189 -41 200 -50 127 -99
-106 -71 -157 -217 -94 -269 20 -16 191 -21 585 -17 l557 5 26 52 c24 51 13
173 -24 262 -11 27 -2 37 42 46 407 86 557 159 777 377 434 431 546 961 375
1765 -66 307 -79 493 -46 637 51 218 -370 108 -639 -167 -237 -242 -307 -468
-223 -725 22 -70 44 -153 47 -184 5 -52 20 -63 145 -108 386 -138 666 -437
610 -650 -40 -154 -122 -274 -145 -214 -105 267 -267 454 -485 561 -71 35
-132 60 -135 56 -3 -4 -33 -81 -66 -170 l-61 -161 95 -103 c163 -177 275 -476
223 -592 -21 -44 -191 -152 -241 -152 -10 0 -24 70 -30 155 -12 153 -58 316
-123 443 l-33 64 -109 -99 c-254 -233 -559 -288 -717 -129 -29 28 -52 69 -52
91 0 21 -18 62 -40 90 -85 107 -58 215 89 358 207 201 261 380 182 605 -36
100 -6 90 49 -18 105 -206 71 -366 -121 -569 -200 -211 -241 -348 -99 -327 55
8 58 5 46 -43 -74 -288 290 -253 594 57 437 446 401 1080 -89 1575 l-182 184
100 47 c326 151 637 435 778 709 l32 63 -79 47 c-104 61 -221 220 -388 527
l-135 248 54 136 c120 300 139 705 37 780 -110 80 -348 -12 -606 -235 l-162
-139 -95 22 c-127 31 -650 31 -773 0 -98 -24 -99 -23 -170 45 -267 254 -566
389 -659 296z m533 -1527 c37 -37 29 -126 -15 -165 -81 -74 -174 31 -124 140
24 53 98 66 139 25z m907 -25 c45 -98 -28 -202 -126 -176 -59 15 -87 116 -49
175 45 69 144 70 175 1z m-326 -300 c378 -191 394 -534 31 -670 -412 -154
-942 143 -797 448 118 249 497 359 766 222z m2059 -1077 c300 -104 348 -155
416 -442 l14 -58 -109 83 c-167 125 -422 230 -662 272 -81 14 -78 2 -44 164
14 67 158 60 385 -19z"/>
<path d="M2473 5299 c-122 -96 -15 -318 141 -292 175 28 269 249 134 310 -82
37 -216 28 -275 -18z"/>
<path d="M800 6848 c-300 -130 -367 -538 -137 -829 108 -137 116 -180 117
-620 l0 -372 -62 -58 c-180 -171 -209 -501 -58 -652 172 -172 461 48 349 264
-95 185 -76 310 59 389 l87 51 8 376 c10 431 10 432 186 562 255 188 307 519
117 740 -128 149 -136 146 -172 -75 -45 -272 -135 -353 -303 -273 -101 48
-124 108 -93 245 66 296 57 319 -98 252z"/>
</g>
</svg>
